<svg width="16" height="16" viewBox="0 0 16 16" fill="none" xmlns="http://www.w3.org/2000/svg">
<path d="M7.639 5.348C7.33814 5.348 7.04023 5.40726 6.76227 5.52239C6.48431 5.63753 6.23176 5.80628 6.01902 6.01902C5.80628 6.23176 5.63753 6.48431 5.52239 6.76227C5.40726 7.04023 5.348 7.33814 5.348 7.639C5.348 7.93986 5.40726 8.23777 5.52239 8.51573C5.63753 8.79368 5.80628 9.04624 6.01902 9.25898C6.23176 9.47172 6.48431 9.64047 6.76227 9.75561C7.04023 9.87074 7.33814 9.93 7.639 9.93C8.24661 9.93 8.82934 9.68863 9.25898 9.25898C9.68863 8.82934 9.93 8.24661 9.93 7.639C9.93 7.03139 9.68863 6.44866 9.25898 6.01902C8.82934 5.58937 8.24661 5.348 7.639 5.348ZM7.639 3.82C8.14578 3.8118 8.64913 3.90453 9.11972 4.0928C9.59031 4.28107 10.0187 4.5611 10.38 4.91659C10.7413 5.27208 11.0282 5.6959 11.2241 6.16339C11.4199 6.63087 11.5208 7.13265 11.5208 7.6395C11.5208 8.14635 11.4199 8.64813 11.2241 9.11561C11.0282 9.58309 10.7413 10.0069 10.38 10.3624C10.0187 10.7179 9.59031 10.9979 9.11972 11.1862C8.64913 11.3745 8.14578 11.4672 7.639 11.459C6.62587 11.459 5.65424 11.0565 4.93785 10.3401C4.22146 9.62376 3.819 8.65213 3.819 7.639C3.819 6.62587 4.22146 5.65424 4.93785 4.93785C5.65424 4.22146 6.62587 3.82 7.639 3.82ZM12.604 3.629C12.6081 3.75695 12.5865 3.88442 12.5404 4.00384C12.4943 4.12327 12.4247 4.2322 12.3356 4.32417C12.2466 4.41614 12.14 4.48927 12.0221 4.53922C11.9042 4.58916 11.7775 4.6149 11.6495 4.6149C11.5215 4.6149 11.3948 4.58916 11.2769 4.53922C11.159 4.48927 11.0524 4.41614 10.9634 4.32417C10.8743 4.2322 10.8047 4.12327 10.7586 4.00384C10.7125 3.88442 10.6909 3.75695 10.695 3.629C10.695 3.37572 10.7956 3.13281 10.9747 2.95371C11.1538 2.77462 11.3967 2.674 11.65 2.674C11.9033 2.674 12.1462 2.77462 12.3253 2.95371C12.5044 3.13281 12.604 3.37572 12.604 3.629ZM7.639 1.529C5.749 1.529 5.441 1.533 4.562 1.572C3.962 1.601 3.561 1.681 3.188 1.826C2.857 1.954 2.618 2.108 2.363 2.363C2.123 2.594 1.94 2.876 1.825 3.188C1.68 3.562 1.6 3.963 1.572 4.562C1.532 5.405 1.528 5.7 1.528 7.639C1.528 9.529 1.533 9.838 1.572 10.717C1.601 11.315 1.681 11.717 1.825 12.09C1.955 12.422 2.108 12.661 2.362 12.915C2.619 13.171 2.858 13.325 3.187 13.452C3.564 13.598 3.966 13.679 4.562 13.706C5.405 13.746 5.7 13.75 7.639 13.75C9.529 13.75 9.838 13.745 10.717 13.706C11.314 13.678 11.717 13.598 12.09 13.453C12.42 13.324 12.661 13.171 12.915 12.917C13.172 12.659 13.325 12.42 13.452 12.092C13.598 11.715 13.679 11.312 13.706 10.717C13.746 9.874 13.75 9.579 13.75 7.639C13.75 5.749 13.745 5.441 13.706 4.562C13.678 3.964 13.598 3.561 13.452 3.188C13.3369 2.87633 13.1534 2.59441 12.915 2.363C12.6841 2.1237 12.4021 1.93977 12.09 1.825C11.716 1.68 11.314 1.6 10.717 1.572C9.874 1.532 9.579 1.529 7.639 1.529ZM7.639 0C9.715 0 9.974 0.00800001 10.788 0.046C11.602 0.084 12.155 0.212 12.643 0.401C13.147 0.595 13.572 0.858 13.996 1.282C14.385 1.664 14.686 2.126 14.877 2.636C15.066 3.122 15.194 3.676 15.232 4.49C15.268 5.305 15.278 5.564 15.278 7.64C15.278 9.715 15.27 9.974 15.232 10.788C15.194 11.602 15.066 12.155 14.877 12.643C14.686 13.153 14.385 13.615 13.997 13.996C13.6149 14.3844 13.1529 14.685 12.643 14.877C12.156 15.066 11.601 15.194 10.788 15.232C9.974 15.268 9.715 15.278 7.639 15.278C5.564 15.278 5.305 15.27 4.49 15.232C3.677 15.194 3.123 15.066 2.636 14.877C2.12591 14.6859 1.66378 14.3855 1.282 13.997C0.893717 13.615 0.593406 13.1529 0.402 12.643C0.212 12.156 0.084 11.601 0.046 10.788C0.01 9.974 0 9.715 0 7.639C0 5.564 0.00800001 5.305 0.046 4.49C0.084 3.676 0.212 3.123 0.401 2.636C0.593 2.126 0.893 1.664 1.282 1.282C1.66387 0.893567 2.12597 0.593233 2.636 0.402C3.123 0.212 3.676 0.084 4.49 0.046C5.305 0.01 5.564 0 7.64 0H7.639Z" fill="white"/>
</svg>
