<svg width="1439" height="882" viewBox="0 0 1439 882" fill="none" xmlns="http://www.w3.org/2000/svg">
<mask id="mask0_2001_16" style="mask-type:alpha" maskUnits="userSpaceOnUse" x="-83" y="-349" width="1604" height="1604">
<circle cx="719" cy="453" r="802" fill="url(#paint0_radial_2001_16)"/>
</mask>
<g mask="url(#mask0_2001_16)">
<line x1="-1" y1="94.2" x2="1439" y2="94.2001" stroke="#161A31" stroke-width="0.6"/>
<line x1="-1" y1="206.7" x2="1439" y2="206.7" stroke="#161A31" stroke-width="0.6"/>
<line x1="-1" y1="319.2" x2="1439" y2="319.2" stroke="#161A31" stroke-width="0.6"/>
<line x1="-1" y1="431.7" x2="1439" y2="431.7" stroke="#161A31" stroke-width="0.6"/>
<line x1="-1" y1="544.2" x2="1439" y2="544.2" stroke="#161A31" stroke-width="0.6"/>
<line x1="-1" y1="656.7" x2="1439" y2="656.7" stroke="#161A31" stroke-width="0.6"/>
<line x1="-1" y1="769.2" x2="1439" y2="769.2" stroke="#161A31" stroke-width="0.6"/>
<line x1="-1" y1="881.7" x2="1439" y2="881.7" stroke="#161A31" stroke-width="0.6"/>
<line x1="109.469" y1="882" x2="109.469" y2="-558" stroke="#161A31" stroke-width="0.6"/>
<line x1="220.238" y1="882" x2="220.239" y2="-558" stroke="#161A31" stroke-width="0.6"/>
<line x1="331.008" y1="882" x2="331.008" y2="-558" stroke="#161A31" stroke-width="0.6"/>
<line x1="441.777" y1="882" x2="441.777" y2="-558" stroke="#161A31" stroke-width="0.6"/>
<line x1="552.546" y1="882" x2="552.546" y2="-558" stroke="#161A31" stroke-width="0.6"/>
<line x1="663.315" y1="882" x2="663.315" y2="-558" stroke="#161A31" stroke-width="0.6"/>
<line x1="774.085" y1="882" x2="774.085" y2="-558" stroke="#161A31" stroke-width="0.6"/>
<line x1="884.854" y1="882" x2="884.854" y2="-558" stroke="#161A31" stroke-width="0.6"/>
<line x1="995.623" y1="882" x2="995.623" y2="-558" stroke="#161A31" stroke-width="0.6"/>
<line x1="1106.39" y1="882" x2="1106.39" y2="-558" stroke="#161A31" stroke-width="0.6"/>
<line x1="1217.16" y1="882" x2="1217.16" y2="-558" stroke="#161A31" stroke-width="0.6"/>
<line x1="1327.93" y1="882" x2="1327.93" y2="-558" stroke="#161A31" stroke-width="0.6"/>
<line x1="1438.7" y1="882" x2="1438.7" y2="-558" stroke="#161A31" stroke-width="0.6"/>
<path d="M109.5 82.5L109.5 106.5" stroke="url(#paint1_linear_2001_16)"/>
<path d="M121.5 94.5L97.5 94.5" stroke="url(#paint2_linear_2001_16)"/>
<g opacity="0.47">
<rect x="331.5" y="95.5" width="109" height="110" fill="#0C0F24"/>
<rect x="331.5" y="95.5" width="109" height="110" fill="#0C0F24"/>
<rect x="331.5" y="95.5" width="109" height="110" fill="#0C0F24"/>
<rect x="331.5" y="95.5" width="109" height="110" fill="#0C0F24"/>
<rect x="331.5" y="95.5" width="109" height="110" stroke="#0C0F24"/>
</g>
<g opacity="0.47">
<rect x="885.5" y="-16.5" width="110" height="110" fill="#0C0F24"/>
<rect x="885.5" y="-16.5" width="110" height="110" fill="#0C0F24"/>
<rect x="885.5" y="-16.5" width="110" height="110" fill="#0C0F24"/>
<rect x="885.5" y="-16.5" width="110" height="110" fill="#0C0F24"/>
<rect x="885.5" y="-16.5" width="110" height="110" stroke="#0C0F24"/>
</g>
<g opacity="0.47">
<rect x="1217.5" y="207.5" width="110" height="111" fill="#0C0F24"/>
<rect x="1217.5" y="207.5" width="110" height="111" fill="#0C0F24"/>
<rect x="1217.5" y="207.5" width="110" height="111" fill="#0C0F24"/>
<rect x="1217.5" y="207.5" width="110" height="111" fill="#0C0F24"/>
<rect x="1217.5" y="207.5" width="110" height="111" stroke="#0C0F24"/>
</g>
<path d="M1217 83L1217 107" stroke="url(#paint3_linear_2001_16)"/>
<path d="M1229 95L1205 95" stroke="url(#paint4_linear_2001_16)"/>
</g>
<defs>
<radialGradient id="paint0_radial_2001_16" cx="0" cy="0" r="1" gradientUnits="userSpaceOnUse" gradientTransform="translate(719 297.5) rotate(90) scale(957.5)">
<stop stop-color="#D9D9D9"/>
<stop offset="1" stop-color="#D9D9D9" stop-opacity="0"/>
</radialGradient>
<linearGradient id="paint1_linear_2001_16" x1="109.5" y1="106.5" x2="109.5" y2="82.5" gradientUnits="userSpaceOnUse">
<stop stop-color="#C34124" stop-opacity="0"/>
<stop offset="0.50284" stop-color="#F99A85"/>
<stop offset="1" stop-color="#C34124" stop-opacity="0"/>
</linearGradient>
<linearGradient id="paint2_linear_2001_16" x1="97.5" y1="94.5" x2="121.5" y2="94.5" gradientUnits="userSpaceOnUse">
<stop stop-color="#C34124" stop-opacity="0"/>
<stop offset="0.50284" stop-color="#F99A85"/>
<stop offset="1" stop-color="#C34124" stop-opacity="0"/>
</linearGradient>
<linearGradient id="paint3_linear_2001_16" x1="1217" y1="107" x2="1217" y2="83" gradientUnits="userSpaceOnUse">
<stop stop-color="white" stop-opacity="0"/>
<stop offset="0.50284" stop-color="white"/>
<stop offset="1" stop-color="white" stop-opacity="0"/>
</linearGradient>
<linearGradient id="paint4_linear_2001_16" x1="1205" y1="95" x2="1229" y2="95" gradientUnits="userSpaceOnUse">
<stop stop-color="white" stop-opacity="0"/>
<stop offset="0.50284" stop-color="white"/>
<stop offset="1" stop-color="white" stop-opacity="0"/>
</linearGradient>
</defs>
</svg>
